<svg xmlns="http://www.w3.org/2000/svg" viewBox="0 0 200 200" width="60" height="60">
  <path d="M50 40 L50 30 Q50 25 55 25 L75 25 Q80 25 80 30 L80 40" fill="none" stroke="#FFFFFF" stroke-width="8" stroke-linecap="round"/>
  
  <path d="M40 40 Q35 40 35 45 L35 140 Q35 150 45 155 L155 155 Q165 150 165 140 L165 45 Q165 40 160 40 Z" fill="none" stroke="#FFFFFF" stroke-width="8" stroke-linejoin="round"/>
  
  <rect x="60" y="70" width="25" height="25" fill="none" stroke="#FFFFFF" stroke-width="6" rx="3"/>
  <rect x="100" y="70" width="25" height="25" fill="none" stroke="#FFFFFF" stroke-width="6" rx="3"/>
  <rect x="140" y="70" width="25" height="40" fill="#FFFFFF" rx="3"/>
  
  <rect x="60" y="110" width="25" height="25" fill="none" stroke="#FFFFFF" stroke-width="6" rx="3"/>
  <rect x="100" y="110" width="15" height="15" fill="#FFFFFF" rx="2"/>
  <rect x="120" y="110" width="8" height="25" fill="#FFFFFF" rx="2"/>
  <rect x="132" y="120" width="18" height="8" fill="#FFFFFF" rx="2"/>
  
  <circle cx="70" cy="175" r="12" fill="#FFFFFF"/>
  <circle cx="140" cy="175" r="12" fill="#FFFFFF"/>
  
  <path d="M30 175 L170 175" stroke="#FFFFFF" stroke-width="8" stroke-linecap="round"/>
</svg>