<?xml version="1.0" encoding="UTF-8"?>
<svg version="1.1" xmlns="http://www.w3.org/2000/svg" width="408" height="285">
<path d="M0 0 C134.64 0 269.28 0 408 0 C408 94.05 408 188.1 408 285 C273.36 285 138.72 285 0 285 C0 190.95 0 96.9 0 0 Z " fill="#FDFEFE" transform="translate(0,0)"/>
<path d="M0 0 C1.1240625 -0.00515625 2.248125 -0.0103125 3.40625 -0.015625 C4.57671875 -0.00015625 5.7471875 0.0153125 6.953125 0.03125 C8.685625 0.00804687 8.685625 0.00804687 10.453125 -0.015625 C18.26645644 0.02005231 23.92659094 0.76891973 29.88232422 6.00854492 C34.14687376 10.49140036 36.12072404 15.55607124 38.078125 21.34375 C38.38492188 22.20162109 38.69171875 23.05949219 39.0078125 23.94335938 C41.203125 30.17157854 41.203125 30.17157854 41.203125 32.53125 C42.18195711 32.52756283 43.16078922 32.52387566 44.16928291 32.52007675 C67.98021051 32.4313008 91.79111665 32.36555757 115.60217476 32.32400131 C127.11700444 32.30337115 138.63172484 32.27524176 150.14648438 32.22949219 C160.18209018 32.18963846 170.21761685 32.16382049 180.25329959 32.15489602 C185.56774052 32.14967882 190.881955 32.13740687 196.19632339 32.10832977 C201.19823437 32.08118394 206.19982557 32.07280338 211.20180321 32.07881927 C213.03761597 32.07771867 214.8734394 32.06975987 216.70918846 32.0544281 C219.21668458 32.03451296 221.72297499 32.03931596 224.23049927 32.05023193 C224.95619334 32.03858057 225.68188742 32.0269292 226.42957222 32.01492476 C232.24895817 32.08335595 235.74106028 34.1393629 239.84765625 38.12890625 C243.63865667 42.88350544 244.81031923 46.52322289 244.203125 52.53125 C243.35610604 56.57357498 242.26949739 60.54222734 241.203125 64.53125 C240.19244036 68.52858884 239.19842309 72.53005642 238.203125 76.53125 C237.78541775 78.20319035 237.36746249 79.87506877 236.94921875 81.546875 C236.73966553 82.38605469 236.5301123 83.22523438 236.31420898 84.08984375 C235.84287956 85.97311145 235.36957083 87.85588439 234.89477539 89.73828125 C233.36327702 95.82581558 231.86561637 101.91945849 230.40708923 108.02484131 C229.54421719 111.62756146 228.66963901 115.22739652 227.79397583 118.82702637 C227.36146097 120.6172084 226.93403611 122.40862854 226.51193237 124.20129395 C225.91057671 126.75219005 225.29107805 129.29809284 224.66796875 131.84375 C224.49406616 132.60129578 224.32016357 133.35884155 224.14099121 134.13934326 C222.60362268 140.29652994 220.52478993 146.16183583 215.18171787 149.97316265 C208.11483272 153.75165866 202.14985253 154.22059084 194.22607422 154.09887695 C192.33656792 154.09997215 192.33656792 154.09997215 190.40888977 154.10108948 C186.98567142 154.10251263 183.56334532 154.07330494 180.1403327 154.03821969 C176.55162026 154.00676984 172.96288294 154.0040109 169.37405396 153.99809265 C162.59203391 153.98260845 155.81042123 153.94165458 149.02857983 153.8913452 C141.30182962 153.83528164 133.57505901 153.8079227 125.84815574 153.78286803 C109.96624365 153.73073299 94.08473705 153.64289778 78.203125 153.53125 C78.10128906 154.35882813 77.99945313 155.18640625 77.89453125 156.0390625 C77.09368484 160.08401553 75.72392245 163.61515263 74.140625 167.40625 C73.85896484 168.09460938 73.57730469 168.78296875 73.28710938 169.4921875 C72.59797234 171.17414909 71.90131702 172.85302697 71.203125 174.53125 C71.95280454 174.52848462 72.70248407 174.52571924 73.47488117 174.52287006 C91.7018296 174.4566664 109.92875408 174.40699683 128.155797 174.37581348 C136.97020086 174.36033329 145.78452455 174.33922184 154.59887695 174.30493164 C162.27993452 174.27506446 169.96093404 174.25568338 177.64204806 174.24898452 C181.71054849 174.24506769 185.77888281 174.23583887 189.84733009 174.21405983 C193.67467917 174.19373692 197.50179331 174.18740762 201.32919121 174.19192696 C202.73570659 174.19109986 204.14222962 174.18510911 205.54869843 174.17363358 C207.46562046 174.15875698 209.38266781 174.16407267 211.29963684 174.17048645 C212.37352567 174.16772107 213.44741449 174.16495569 214.55384541 174.16210651 C217.203125 174.53125 217.203125 174.53125 219.04474926 175.83895397 C221.02148649 178.72681189 220.61735583 181.15822749 220.203125 184.53125 C218.05571431 187.4184212 216.86632361 188.41607442 213.28859043 189.03740788 C212.14837405 189.0402148 211.00815767 189.04302172 209.83338928 189.0459137 C208.52250839 189.05863815 207.2116275 189.07136261 205.86102295 189.08447266 C204.41003238 189.07829032 202.95904356 189.07168429 201.50805664 189.06469727 C199.97864448 189.07175523 198.44923931 189.08049974 196.91984558 189.09080505 C192.76687234 189.11332347 188.61427975 189.11035363 184.46126866 189.10148358 C180.99447998 189.09637634 177.52776299 189.10366414 174.06098169 189.11095566 C165.88246907 189.12796262 157.704143 189.12438105 149.52563477 189.10766602 C141.08783448 189.09074404 132.65055149 189.10657824 124.21280771 189.1388889 C116.96850857 189.1655787 109.72437052 189.17286246 102.48002714 189.16437382 C98.15326073 189.15944274 93.82680559 189.1616697 89.5000782 189.18216133 C85.43116233 189.20050905 81.36299086 189.19457166 77.29411507 189.16996193 C75.80137504 189.16495101 74.30857839 189.16845124 72.81588364 189.18111038 C70.77725324 189.19703084 68.73844235 189.17907548 66.69984436 189.15943909 C65.55925096 189.15885278 64.41865755 189.15826647 63.24350071 189.15766239 C59.25479941 188.3358653 57.74703061 186.63676949 55.203125 183.53125 C53.16927014 176.25775023 56.47082541 169.74127327 59.765625 163.40625 C60.63943253 161.72555393 61.49544169 160.0354659 62.33203125 158.3359375 C62.90546265 157.23741455 62.90546265 157.23741455 63.49047852 156.11669922 C65.14029213 150.13125004 62.8999997 144.00490207 60.97265625 138.31640625 C60.63212471 137.30125443 60.63212471 137.30125443 60.28471375 136.26559448 C59.53568867 134.03909161 58.77582379 131.81646006 58.015625 129.59375 C57.48378211 128.0211151 56.95254483 126.44827527 56.421875 124.87524414 C54.99375128 120.64930128 53.55551589 116.42686674 52.11480713 112.2052002 C50.86714969 108.54583939 49.62488719 104.8846543 48.38224792 101.22358704 C41.81852398 81.69133324 41.81852398 81.69133324 34.91796875 62.27734375 C33.50781319 58.44392193 32.31370567 54.60707943 31.265625 50.65625 C29.63849955 44.80116078 27.61738186 39.22016422 25.359375 33.58203125 C23.99976172 29.99467324 22.98483711 26.37645883 22.07421875 22.65234375 C20.82476751 19.609958 19.97699954 18.40277981 17.203125 16.53125 C12.58420177 15.87852824 7.92184952 16.0732495 3.26757812 16.13085938 C-4.10287395 16.04659731 -4.10287395 16.04659731 -7.953125 13.1875 C-9.796875 10.53125 -9.796875 10.53125 -10.359375 7.46875 C-9.21922909 1.51465469 -5.69538465 0.02525669 0 0 Z " fill="#F7FDFC" transform="translate(71.796875,45.46875)"/>
<path d="M0 0 C1.1240625 -0.00515625 2.248125 -0.0103125 3.40625 -0.015625 C4.57671875 -0.00015625 5.7471875 0.0153125 6.953125 0.03125 C8.685625 0.00804687 8.685625 0.00804687 10.453125 -0.015625 C18.26645644 0.02005231 23.92659094 0.76891973 29.88232422 6.00854492 C34.14687376 10.49140036 36.12072404 15.55607124 38.078125 21.34375 C38.38492188 22.20162109 38.69171875 23.05949219 39.0078125 23.94335938 C41.203125 30.17157854 41.203125 30.17157854 41.203125 32.53125 C42.18195711 32.52756283 43.16078922 32.52387566 44.16928291 32.52007675 C67.98021051 32.4313008 91.79111665 32.36555757 115.60217476 32.32400131 C127.11700444 32.30337115 138.63172484 32.27524176 150.14648438 32.22949219 C160.18209018 32.18963846 170.21761685 32.16382049 180.25329959 32.15489602 C185.56774052 32.14967882 190.881955 32.13740687 196.19632339 32.10832977 C201.19823437 32.08118394 206.19982557 32.07280338 211.20180321 32.07881927 C213.03761597 32.07771867 214.8734394 32.06975987 216.70918846 32.0544281 C219.21668458 32.03451296 221.72297499 32.03931596 224.23049927 32.05023193 C224.95619334 32.03858057 225.68188742 32.0269292 226.42957222 32.01492476 C232.24895817 32.08335595 235.74106028 34.1393629 239.84765625 38.12890625 C243.63865667 42.88350544 244.81031923 46.52322289 244.203125 52.53125 C243.35610604 56.57357498 242.26949739 60.54222734 241.203125 64.53125 C240.19244036 68.52858884 239.19842309 72.53005642 238.203125 76.53125 C237.78541775 78.20319035 237.36746249 79.87506877 236.94921875 81.546875 C236.73966553 82.38605469 236.5301123 83.22523438 236.31420898 84.08984375 C235.84287956 85.97311145 235.36957083 87.85588439 234.89477539 89.73828125 C233.36327702 95.82581558 231.86561637 101.91945849 230.40708923 108.02484131 C229.54421719 111.62756146 228.66963901 115.22739652 227.79397583 118.82702637 C227.36146097 120.6172084 226.93403611 122.40862854 226.51193237 124.20129395 C225.91057671 126.75219005 225.29107805 129.29809284 224.66796875 131.84375 C224.49406616 132.60129578 224.32016357 133.35884155 224.14099121 134.13934326 C222.60362268 140.29652994 220.52478993 146.16183583 215.18171787 149.97316265 C208.11483272 153.75165866 202.14985253 154.22059084 194.22607422 154.09887695 C192.33656792 154.09997215 192.33656792 154.09997215 190.40888977 154.10108948 C186.98567142 154.10251263 183.56334532 154.07330494 180.1403327 154.03821969 C176.55162026 154.00676984 172.96288294 154.0040109 169.37405396 153.99809265 C162.59203391 153.98260845 155.81042123 153.94165458 149.02857983 153.8913452 C141.30182962 153.83528164 133.57505901 153.8079227 125.84815574 153.78286803 C109.96624365 153.73073299 94.08473705 153.64289778 78.203125 153.53125 C78.10128906 154.35882813 77.99945313 155.18640625 77.89453125 156.0390625 C77.09368484 160.08401553 75.72392245 163.61515263 74.140625 167.40625 C73.85896484 168.09460938 73.57730469 168.78296875 73.28710938 169.4921875 C72.59797234 171.17414909 71.90131702 172.85302697 71.203125 174.53125 C71.95280454 174.52848462 72.70248407 174.52571924 73.47488117 174.52287006 C91.7018296 174.4566664 109.92875408 174.40699683 128.155797 174.37581348 C136.97020086 174.36033329 145.78452455 174.33922184 154.59887695 174.30493164 C162.27993452 174.27506446 169.96093404 174.25568338 177.64204806 174.24898452 C181.71054849 174.24506769 185.77888281 174.23583887 189.84733009 174.21405983 C193.67467917 174.19373692 197.50179331 174.18740762 201.32919121 174.19192696 C202.73570659 174.19109986 204.14222962 174.18510911 205.54869843 174.17363358 C207.46562046 174.15875698 209.38266781 174.16407267 211.29963684 174.17048645 C212.37352567 174.16772107 213.44741449 174.16495569 214.55384541 174.16210651 C217.203125 174.53125 217.203125 174.53125 219.04474926 175.83895397 C221.02148649 178.72681189 220.61735583 181.15822749 220.203125 184.53125 C218.05571431 187.4184212 216.86632361 188.41607442 213.28859043 189.03740788 C212.14837405 189.0402148 211.00815767 189.04302172 209.83338928 189.0459137 C208.52250839 189.05863815 207.2116275 189.07136261 205.86102295 189.08447266 C204.41003238 189.07829032 202.95904356 189.07168429 201.50805664 189.06469727 C199.97864448 189.07175523 198.44923931 189.08049974 196.91984558 189.09080505 C192.76687234 189.11332347 188.61427975 189.11035363 184.46126866 189.10148358 C180.99447998 189.09637634 177.52776299 189.10366414 174.06098169 189.11095566 C165.88246907 189.12796262 157.704143 189.12438105 149.52563477 189.10766602 C141.08783448 189.09074404 132.65055149 189.10657824 124.21280771 189.1388889 C116.96850857 189.1655787 109.72437052 189.17286246 102.48002714 189.16437382 C98.15326073 189.15944274 93.82680559 189.1616697 89.5000782 189.18216133 C85.43116233 189.20050905 81.36299086 189.19457166 77.29411507 189.16996193 C75.80137504 189.16495101 74.30857839 189.16845124 72.81588364 189.18111038 C70.77725324 189.19703084 68.73844235 189.17907548 66.69984436 189.15943909 C65.55925096 189.15885278 64.41865755 189.15826647 63.24350071 189.15766239 C59.25479941 188.3358653 57.74703061 186.63676949 55.203125 183.53125 C53.16927014 176.25775023 56.47082541 169.74127327 59.765625 163.40625 C60.63943253 161.72555393 61.49544169 160.0354659 62.33203125 158.3359375 C62.90546265 157.23741455 62.90546265 157.23741455 63.49047852 156.11669922 C65.14029213 150.13125004 62.8999997 144.00490207 60.97265625 138.31640625 C60.63212471 137.30125443 60.63212471 137.30125443 60.28471375 136.26559448 C59.53568867 134.03909161 58.77582379 131.81646006 58.015625 129.59375 C57.48378211 128.0211151 56.95254483 126.44827527 56.421875 124.87524414 C54.99375128 120.64930128 53.55551589 116.42686674 52.11480713 112.2052002 C50.86714969 108.54583939 49.62488719 104.8846543 48.38224792 101.22358704 C41.81852398 81.69133324 41.81852398 81.69133324 34.91796875 62.27734375 C33.50781319 58.44392193 32.31370567 54.60707943 31.265625 50.65625 C29.63849955 44.80116078 27.61738186 39.22016422 25.359375 33.58203125 C23.99976172 29.99467324 22.98483711 26.37645883 22.07421875 22.65234375 C20.82476751 19.609958 19.97699954 18.40277981 17.203125 16.53125 C12.58420177 15.87852824 7.92184952 16.0732495 3.26757812 16.13085938 C-4.10287395 16.04659731 -4.10287395 16.04659731 -7.953125 13.1875 C-9.796875 10.53125 -9.796875 10.53125 -10.359375 7.46875 C-9.21922909 1.51465469 -5.69538465 0.02525669 0 0 Z M46.203125 46.53125 C46.50907155 47.948497 46.81753646 49.36520047 47.12702942 50.78167725 C47.29852918 51.5706628 47.47002893 52.35964836 47.64672565 53.17254257 C48.48003357 56.70513043 49.60679582 60.11407427 50.77734375 63.546875 C51.02204407 64.27668579 51.26674438 65.00649658 51.51885986 65.75842285 C52.30526785 68.10079565 53.09793097 70.44099797 53.890625 72.78125 C54.43674998 74.40511522 54.98240145 76.02913975 55.52758789 77.65332031 C56.8490552 81.58774106 58.17490632 85.52066571 59.50219727 89.453125 C61.0560199 94.05993039 62.60013023 98.66997352 64.140625 103.28125 C64.54752563 104.49627197 64.54752563 104.49627197 64.96264648 105.73583984 C67.10227382 112.1540551 69.10967111 118.6085966 71.0625 125.0859375 C72.25455957 128.68661059 73.66207309 132.06831152 75.203125 135.53125 C75.533125 135.53125 75.863125 135.53125 76.203125 135.53125 C76.533125 125.96125 76.863125 116.39125 77.203125 106.53125 C90.073125 106.53125 102.943125 106.53125 116.203125 106.53125 C116.533125 117.09125 116.863125 127.65125 117.203125 138.53125 C128.75546451 138.59896187 140.30767275 138.65402915 151.8601656 138.68668652 C157.22415335 138.70235849 162.58799858 138.72362475 167.9519043 138.75756836 C173.12604872 138.79010712 178.30005584 138.80809147 183.47429466 138.81588173 C185.45071767 138.8214351 187.42713296 138.83227917 189.4034977 138.84844017 C192.16670741 138.87014156 194.92934606 138.87321999 197.69262695 138.87182617 C198.51405685 138.882612 199.33548676 138.89339783 200.18180847 138.9045105 C204.2968101 138.99962186 204.2968101 138.99962186 207.85896587 137.23575306 C210.11822214 134.37083242 210.74531797 130.88098945 211.640625 127.40625 C211.96148071 126.20452148 211.96148071 126.20452148 212.28881836 124.97851562 C214.82555862 115.37116612 217.07610975 105.69842043 219.19921875 95.9921875 C221.53757522 85.30353276 224.20145982 74.76279782 227.12109375 64.21484375 C228.65018296 58.47896451 229.65162046 53.47381484 229.203125 47.53125 C227.54044977 45.86857477 225.53126707 46.4091212 223.3105368 46.40216869 C222.25267718 46.40653795 222.25267718 46.40653795 221.17344666 46.41099548 C220.4293857 46.41014106 219.68532475 46.40928663 218.91871649 46.40840632 C216.4066432 46.40674929 213.89463558 46.4122765 211.38256836 46.41772461 C209.58934023 46.41800646 207.79611198 46.41784879 206.00288391 46.4172821 C201.11879135 46.41699404 196.23472313 46.42289214 191.35063624 46.42985606 C186.2523592 46.43608819 181.15408166 46.43669329 176.05580139 46.43788147 C166.39435341 46.4409952 156.73291668 46.44920916 147.07147366 46.45923096 C136.07528877 46.47039079 125.07910337 46.47590222 114.08291423 46.48092639 C91.45631157 46.49139174 68.82971892 46.50899199 46.203125 46.53125 Z " fill="#14B4B7" transform="translate(71.796875,45.46875)"/>
<path d="M0 0 C1.1240625 -0.00515625 2.248125 -0.0103125 3.40625 -0.015625 C4.57671875 -0.00015625 5.7471875 0.0153125 6.953125 0.03125 C8.685625 0.00804687 8.685625 0.00804687 10.453125 -0.015625 C18.26645644 0.02005231 23.92659094 0.76891973 29.88232422 6.00854492 C34.14687376 10.49140036 36.12072404 15.55607124 38.078125 21.34375 C38.38492188 22.20162109 38.69171875 23.05949219 39.0078125 23.94335938 C41.203125 30.17157854 41.203125 30.17157854 41.203125 32.53125 C42.18195711 32.52756283 43.16078922 32.52387566 44.16928291 32.52007675 C67.98021051 32.4313008 91.79111665 32.36555757 115.60217476 32.32400131 C127.11700444 32.30337115 138.63172484 32.27524176 150.14648438 32.22949219 C160.18209018 32.18963846 170.21761685 32.16382049 180.25329959 32.15489602 C185.56774052 32.14967882 190.881955 32.13740687 196.19632339 32.10832977 C201.19823437 32.08118394 206.19982557 32.07280338 211.20180321 32.07881927 C213.03761597 32.07771867 214.8734394 32.06975987 216.70918846 32.0544281 C219.21668458 32.03451296 221.72297499 32.03931596 224.23049927 32.05023193 C224.95619334 32.03858057 225.68188742 32.0269292 226.42957222 32.01492476 C232.24895817 32.08335595 235.74106028 34.1393629 239.84765625 38.12890625 C243.63865667 42.88350544 244.81031923 46.52322289 244.203125 52.53125 C243.35610604 56.57357498 242.26949739 60.54222734 241.203125 64.53125 C239.73040682 70.35055434 238.29080419 76.17817912 236.84375 82.00390625 C233.06477458 97.20624624 229.15830026 112.37386113 225.203125 127.53125 C224.873125 127.53125 224.543125 127.53125 224.203125 127.53125 C223.213125 123.90125 222.223125 120.27125 221.203125 116.53125 C220.543125 116.53125 219.883125 116.53125 219.203125 116.53125 C218.873125 117.52125 218.543125 118.51125 218.203125 119.53125 C217.213125 119.86125 216.223125 120.19125 215.203125 120.53125 C213.70505942 113.29059971 214.8974511 108.27211437 217.09375 101.26953125 C218.19513057 97.55818897 218.98636178 93.8965771 219.703125 90.09375 C221.37543586 81.33229526 223.74533804 72.79410801 226.125 64.203125 C226.39828125 63.17703125 226.6715625 62.1509375 226.953125 61.09375 C227.19546875 60.20816406 227.4378125 59.32257813 227.6875 58.41015625 C228.43819047 54.706254 228.43819047 54.706254 228.203125 47.53125 C138.113125 47.03625 138.113125 47.03625 46.203125 46.53125 C49.173125 55.44125 49.173125 55.44125 52.203125 64.53125 C52.203125 65.19125 52.203125 65.85125 52.203125 66.53125 C51.543125 66.53125 50.883125 66.53125 50.203125 66.53125 C49.708125 68.01625 49.708125 68.01625 49.203125 69.53125 C48.213125 69.86125 47.223125 70.19125 46.203125 70.53125 C44.97035373 72.39147072 44.97035373 72.39147072 44.015625 74.59375 C43.67144531 75.32722656 43.32726562 76.06070313 42.97265625 76.81640625 C42.71871094 77.38230469 42.46476562 77.94820313 42.203125 78.53125 C40.1499979 76.4781229 39.60185219 75.33669704 38.6171875 72.671875 C38.32827637 71.89279785 38.03936523 71.1137207 37.74169922 70.31103516 C37.44021973 69.47620605 37.13874023 68.64137695 36.828125 67.78125 C36.51504395 66.92450684 36.20196289 66.06776367 35.87939453 65.18505859 C33.69292856 59.11532025 31.85862023 53.03034831 30.16796875 46.8046875 C28.83558141 42.28428026 27.11035222 37.95413596 25.359375 33.58203125 C23.99976172 29.99467324 22.98483711 26.37645883 22.07421875 22.65234375 C20.82476751 19.609958 19.97699954 18.40277981 17.203125 16.53125 C12.58420177 15.87852824 7.92184952 16.0732495 3.26757812 16.13085938 C-4.10287395 16.04659731 -4.10287395 16.04659731 -7.953125 13.1875 C-9.796875 10.53125 -9.796875 10.53125 -10.359375 7.46875 C-9.21922909 1.51465469 -5.69538465 0.02525669 0 0 Z " fill="#16B4B8" transform="translate(71.796875,45.46875)"/>
<path d="M0 0 C1.36560059 0.00303635 1.36560059 0.00303635 2.75878906 0.00613403 C3.68723633 0.00517731 4.61568359 0.00422058 5.57226562 0.00323486 C7.53938871 0.00255298 9.50651403 0.00440781 11.47363281 0.00857544 C14.49581932 0.01392358 17.51785721 0.00863071 20.54003906 0.00222778 C22.44628939 0.00288856 24.35253963 0.00416972 26.25878906 0.00613403 C27.16918945 0.0041098 28.07958984 0.00208557 29.01757812 0 C35.39383938 0.02399685 35.39383938 0.02399685 36.50878906 1.13894653 C36.61275519 2.81073333 36.64731799 4.48689286 36.65405273 6.16189575 C36.66043259 7.23325775 36.66681244 8.30461975 36.67338562 9.40844727 C36.67449844 10.5750589 36.67561127 11.74167053 36.67675781 12.94363403 C36.68175041 14.72871872 36.68175041 14.72871872 36.68684387 16.54986572 C36.69191862 19.07353324 36.69425203 21.59720751 36.6940918 24.12088013 C36.69627571 27.99029575 36.71441888 31.85942527 36.73339844 35.72879028 C36.7363327 38.17540389 36.73831728 40.62201885 36.73925781 43.06863403 C36.74644333 44.2311972 36.75362885 45.39376038 36.7610321 46.59155273 C36.75795547 47.66921906 36.75487885 48.74688538 36.75170898 49.85720825 C36.753134 50.80683441 36.75455902 51.75646057 36.75602722 52.73486328 C36.50878906 55.13894653 36.50878906 55.13894653 34.50878906 58.13894653 C31.39841209 58.41786984 28.48985436 58.51053962 25.37988281 58.46707153 C24.47504654 58.46519836 23.57021027 58.4633252 22.63795471 58.46139526 C20.72384969 58.45466712 18.80975858 58.44073756 16.89575195 58.42019653 C13.95478647 58.38903656 11.01435637 58.37922689 8.07324219 58.37332153 C6.21711582 58.36415217 4.36099493 58.35377661 2.50488281 58.34207153 C1.17679848 58.33569672 1.17679848 58.33569672 -0.17811584 58.32919312 C-6.37406567 58.2560918 -6.37406567 58.2560918 -7.49121094 57.13894653 C-7.59008886 55.39512118 -7.61920126 53.6472911 -7.62060547 51.90066528 C-7.62375763 50.7828064 -7.62690979 49.66494751 -7.63015747 48.51321411 C-7.62813324 47.29658081 -7.62610901 46.07994751 -7.62402344 44.82644653 C-7.62498016 43.58725464 -7.62593689 42.34806274 -7.62692261 41.07131958 C-7.62760468 38.44506373 -7.62624631 35.8189002 -7.62158203 33.19265747 C-7.61588474 29.8196594 -7.61916396 26.44674088 -7.6251545 23.07374573 C-7.62962864 19.86630977 -7.62649976 16.65888353 -7.62402344 13.45144653 C-7.62604767 12.23481323 -7.6280719 11.01817993 -7.63015747 9.76467896 C-7.62700531 8.64682007 -7.62385315 7.52896118 -7.62060547 6.37722778 C-7.61980988 5.38763062 -7.61901428 4.39803345 -7.61819458 3.37844849 C-7.3502634 -1.34682468 -3.95611109 0.01488869 0 0 Z " fill="#10B5BB" transform="translate(246.4912109375,109.86105346679688)"/>
<path d="M0 0 C0.79273315 0.00404846 1.58546631 0.00809692 2.40222168 0.01226807 C3.62274231 0.00939789 3.62274231 0.00939789 4.86791992 0.00646973 C6.58948068 0.0051078 8.31105171 0.00880479 10.03259277 0.01715088 C12.67296338 0.02785048 15.31265357 0.01725607 17.95300293 0.00445557 C19.62357735 0.00577716 21.29415135 0.00833955 22.96472168 0.01226807 C23.75745483 0.0082196 24.55018799 0.00417114 25.36694336 0 C30.95355141 0.04797279 30.95355141 0.04797279 33.18347168 2.27789307 C33.38337395 5.12329449 33.46324144 7.8692709 33.44909668 10.71539307 C33.45196686 11.96920776 33.45196686 11.96920776 33.45489502 13.24835205 C33.45625704 15.01699118 33.45255944 16.78564029 33.44421387 18.55426025 C33.43351443 21.267053 33.44410844 23.9791835 33.45690918 26.69195557 C33.45558759 28.40810287 33.4530252 30.12424975 33.44909668 31.84039307 C33.45314514 32.655 33.4571936 33.46960693 33.46136475 34.30889893 C33.41339096 40.04797379 33.41339096 40.04797379 31.18347168 42.27789307 C28.32632704 42.46550337 25.56781182 42.53346624 22.71081543 42.50836182 C21.87256729 42.50790359 21.03431915 42.50744537 20.17066956 42.50697327 C18.39782293 42.50395031 16.62497897 42.4960627 14.85217285 42.48370361 C12.12852646 42.46544372 9.40521976 42.46319392 6.68151855 42.46343994 C4.96211455 42.45852498 3.24271287 42.45269676 1.52331543 42.44586182 C0.2936631 42.44419258 0.2936631 42.44419258 -0.96083069 42.44248962 C-6.70048031 42.39394107 -6.70048031 42.39394107 -7.81652832 41.27789307 C-7.93001993 38.4169509 -7.98071324 35.58105851 -7.98449707 32.71929932 C-7.98782547 31.85981186 -7.99115387 31.0003244 -7.99458313 30.11479187 C-7.99965602 28.29310645 -8.00199134 26.47141171 -8.00183105 24.64971924 C-8.00401635 21.85570017 -8.02216476 19.0620765 -8.0411377 16.26812744 C-8.04407172 14.50185276 -8.04605646 12.73557619 -8.04699707 10.96929932 C-8.05418259 10.12968155 -8.0613681 9.29006378 -8.06877136 8.42500305 C-8.04096015 1.39741389 -7.09415101 0.06091822 0 0 Z " fill="#0FB4B8" transform="translate(155.8165283203125,100.72210693359375)"/>
<path d="M0 0 C1.30517578 0.00322266 2.61035156 0.00644531 3.95507812 0.00976562 C5.25638672 -0.00634766 6.55769531 -0.02246094 7.8984375 -0.0390625 C9.76532227 -0.0400293 9.76532227 -0.0400293 11.66992188 -0.04101562 C12.81452881 -0.04399658 13.95913574 -0.04697754 15.13842773 -0.05004883 C18.01757812 0.32226562 18.01757812 0.32226562 19.89599609 1.45751953 C21.53758786 4.18683558 21.35515005 6.35465867 21.31054688 9.52148438 C21.29604492 11.33422852 21.29604492 11.33422852 21.28125 13.18359375 C21.25611328 14.44623047 21.23097656 15.70886719 21.20507812 17.00976562 C21.18477539 18.92112305 21.18477539 18.92112305 21.1640625 20.87109375 C21.12866011 24.0219062 21.07927602 27.17187607 21.01757812 30.32226562 C16.78842969 32.43683984 11.23858007 31.50812391 6.58642578 31.50756836 C4.52550686 31.5097572 2.46512123 31.52792546 0.40429688 31.546875 C-0.88863281 31.54880859 -2.1815625 31.55074219 -3.51367188 31.55273438 C-4.70541016 31.55684326 -5.89714844 31.56095215 -7.125 31.56518555 C-9.98242188 31.32226562 -9.98242188 31.32226562 -11.98242188 29.32226562 C-12.24121094 26.6484375 -12.24121094 26.6484375 -12.24804688 23.29101562 C-12.250625 22.08832031 -12.25320312 20.885625 -12.25585938 19.64648438 C-12.248125 18.38449219 -12.24039063 17.1225 -12.23242188 15.82226562 C-12.24015625 14.56027344 -12.24789062 13.29828125 -12.25585938 11.99804688 C-12.25328125 10.79535156 -12.25070313 9.59265625 -12.24804688 8.35351562 C-12.24579102 7.24556641 -12.24353516 6.13761719 -12.24121094 4.99609375 C-11.59434764 -1.6873467 -5.23134195 0.0298314 0 0 Z " fill="#1EB6BA" transform="translate(208.982421875,100.677734375)"/>
<path d="M0 0 C3.18323782 1.45922917 5.42742956 2.87289659 7.80078125 5.46875 C9.45586088 10.12366145 9.71660122 14.59070544 8.109375 19.3125 C6.56976591 22.3530669 4.86502397 24.23493548 2.11328125 26.21875 C-3.58368058 28.04607738 -8.12719625 28.27889046 -13.57421875 25.65625 C-17.69658268 21.92649216 -19.33299293 18.39475387 -19.82421875 12.90625 C-19.6884017 7.89799645 -17.29863487 5.31027412 -13.92578125 1.8125 C-9.91283709 -1.7464912 -4.90842464 -1.6041743 0 0 Z " fill="#16B4B8" transform="translate(146.19921875,242.71875)"/>
<path d="M0 0 C3.5520858 2.31657769 5.60510254 4.26986875 7.875 7.875 C8.84078802 12.48558804 8.35950969 16.5398815 6.25 20.75 C3.56847248 24.27832569 2.07980229 25.52628983 -2.125 26.875 C-6.37030808 27.40753865 -9.91629441 27.33162211 -13.9375 25.8125 C-18.23814281 22.00335922 -20.33386724 18.04601856 -20.75 12.375 C-20.55061709 7.8888846 -18.83711805 5.49930792 -15.828125 2.28515625 C-10.89857594 -1.79641992 -6.02143047 -2.16771497 0 0 Z " fill="#13B4B9" transform="translate(274.125,243.125)"/>
<path d="M0 0 C8.25 0 16.5 0 25 0 C25 8.25 25 16.5 25 25 C16.75 25 8.5 25 0 25 C0 16.75 0 8.5 0 0 Z " fill="#E8F8F7" transform="translate(156,110)"/>
<path d="M0 0 C1.93456055 0.0009668 1.93456055 0.0009668 3.90820312 0.00195312 C4.57875732 0.01025146 5.24931152 0.0185498 5.94018555 0.02709961 C7.99242263 0.05073896 10.04336408 0.04765273 12.09570312 0.04101562 C22.16674657 0.09643407 22.16674657 0.09643407 24.43359375 2.36328125 C24.6640625 5.1484375 24.6640625 5.1484375 24.62109375 8.42578125 C24.61464844 9.50988281 24.60820312 10.59398438 24.6015625 11.7109375 C24.43359375 14.36328125 24.43359375 14.36328125 23.43359375 15.36328125 C19.0336043 15.58161114 14.62824563 15.54907271 10.22338867 15.54858398 C8.00875593 15.55076876 5.79462252 15.56891656 3.58007812 15.58789062 C2.17838713 15.59082481 0.77669375 15.59280944 -0.625 15.59375 C-1.90689209 15.59785889 -3.18878418 15.60196777 -4.50952148 15.60620117 C-7.56640625 15.36328125 -7.56640625 15.36328125 -9.56640625 13.36328125 C-9.8671875 11.0859375 -9.8671875 11.0859375 -9.87890625 8.42578125 C-9.89566406 7.55050781 -9.91242188 6.67523438 -9.9296875 5.7734375 C-9.56640625 3.36328125 -9.56640625 3.36328125 -8.45410156 1.73535156 C-5.66193151 -0.29413572 -3.4201942 -0.00859287 0 0 Z " fill="#1AB4B8" transform="translate(156.56640625,54.63671875)"/>
<path d="M0 0 C0.79273315 0.00404846 1.58546631 0.00809692 2.40222168 0.01226807 C3.62274231 0.00939789 3.62274231 0.00939789 4.86791992 0.00646973 C6.58948068 0.0051078 8.31105171 0.00880479 10.03259277 0.01715088 C12.67296338 0.02785048 15.31265357 0.01725607 17.95300293 0.00445557 C19.62357735 0.00577716 21.29415135 0.00833955 22.96472168 0.01226807 C23.75745483 0.0082196 24.55018799 0.00417114 25.36694336 0 C30.95355141 0.04797279 30.95355141 0.04797279 33.18347168 2.27789307 C33.38337395 5.12329449 33.46324144 7.8692709 33.44909668 10.71539307 C33.45196686 11.96920776 33.45196686 11.96920776 33.45489502 13.24835205 C33.45625704 15.01699118 33.45255944 16.78564029 33.44421387 18.55426025 C33.43351443 21.267053 33.44410844 23.9791835 33.45690918 26.69195557 C33.45558759 28.40810287 33.4530252 30.12424975 33.44909668 31.84039307 C33.45314514 32.655 33.4571936 33.46960693 33.46136475 34.30889893 C33.41339096 40.04797379 33.41339096 40.04797379 31.18347168 42.27789307 C28.32632704 42.46550337 25.56781182 42.53346624 22.71081543 42.50836182 C21.87256729 42.50790359 21.03431915 42.50744537 20.17066956 42.50697327 C18.39782293 42.50395031 16.62497897 42.4960627 14.85217285 42.48370361 C12.12852646 42.46544372 9.40521976 42.46319392 6.68151855 42.46343994 C4.96211455 42.45852498 3.24271287 42.45269676 1.52331543 42.44586182 C0.2936631 42.44419258 0.2936631 42.44419258 -0.96083069 42.44248962 C-6.70048031 42.39394107 -6.70048031 42.39394107 -7.81652832 41.27789307 C-7.93001993 38.4169509 -7.98071324 35.58105851 -7.98449707 32.71929932 C-7.98782547 31.85981186 -7.99115387 31.0003244 -7.99458313 30.11479187 C-7.99965602 28.29310645 -8.00199134 26.47141171 -8.00183105 24.64971924 C-8.00401635 21.85570017 -8.02216476 19.0620765 -8.0411377 16.26812744 C-8.04407172 14.50185276 -8.04605646 12.73557619 -8.04699707 10.96929932 C-8.05418259 10.12968155 -8.0613681 9.29006378 -8.06877136 8.42500305 C-8.04096015 1.39741389 -7.09415101 0.06091822 0 0 Z M0.18347168 2.27789307 C0.18347168 3.92789307 0.18347168 5.57789307 0.18347168 7.27789307 C8.43347168 7.27789307 16.68347168 7.27789307 25.18347168 7.27789307 C25.18347168 7.93789307 25.18347168 8.59789307 25.18347168 9.27789307 C16.93347168 9.27789307 8.68347168 9.27789307 0.18347168 9.27789307 C-0.14652832 7.62789307 -0.47652832 5.97789307 -0.81652832 4.27789307 C-1.80652832 4.77289307 -1.80652832 4.77289307 -2.81652832 5.27789307 C-2.81652832 17.15789307 -2.81652832 29.03789307 -2.81652832 41.27789307 C8.40347168 41.27789307 19.62347168 41.27789307 31.18347168 41.27789307 C32.76504245 38.11475154 32.32536517 34.71499764 32.31628418 31.24273682 C32.31724091 30.44888077 32.31819763 29.65502472 32.31918335 28.83711243 C32.31986419 27.15843629 32.31801658 25.47975751 32.31384277 23.80108643 C32.30848609 21.22233209 32.3137946 18.64375138 32.32019043 16.06500244 C32.31952977 14.43674685 32.31824886 12.80849136 32.31628418 11.18023682 C32.31830841 10.40421616 32.32033264 9.6281955 32.32241821 8.82865906 C32.63953157 5.2578048 32.63953157 5.2578048 31.18347168 2.27789307 C28.89195751 2.18998332 26.59774644 2.17095268 24.30456543 2.18023682 C23.61790298 2.18165176 22.93124054 2.18306671 22.22377014 2.18452454 C20.02279367 2.19013827 17.82191759 2.202693 15.62097168 2.21539307 C14.13204085 2.2204063 12.64310844 2.22496951 11.1541748 2.22906494 C7.49724093 2.24011214 3.8403661 2.25738594 0.18347168 2.27789307 Z " fill="#18AEB0" transform="translate(155.8165283203125,100.72210693359375)"/>
<path d="M0 0 C3.5 0.125 3.5 0.125 4.5 1.125 C4.57205511 2.81108966 4.58386068 4.50000659 4.5625 6.1875 C4.55347656 7.10660156 4.54445312 8.02570313 4.53515625 8.97265625 C4.52355469 9.68292969 4.51195312 10.39320313 4.5 11.125 C6.48 11.125 8.46 11.125 10.5 11.125 C12.38519529 14.89539057 11.68475994 19.47654595 11.6875 23.625 C11.69974609 24.60082031 11.71199219 25.57664063 11.72460938 26.58203125 C11.72750977 27.98001953 11.72750977 27.98001953 11.73046875 29.40625 C11.73457764 30.26283203 11.73868652 31.11941406 11.74291992 32.00195312 C11.5 34.125 11.5 34.125 9.5 36.125 C6.75 36.390625 6.75 36.390625 3.5 36.375 C1.89125 36.38273437 1.89125 36.38273437 0.25 36.390625 C-2.5 36.125 -2.5 36.125 -4.5 34.125 C-4.82752234 31.41045044 -4.6308425 28.87269241 -4.5 26.125 C-3.5 25.125 -3.5 25.125 -0.4375 25.0625 C1.0165625 25.0934375 1.0165625 25.0934375 2.5 25.125 C2.5 22.815 2.5 20.505 2.5 18.125 C1.530625 18.145625 0.56125 18.16625 -0.4375 18.1875 C-3.5 18.125 -3.5 18.125 -4.5 17.125 C-4.59981214 14.4476862 -4.63879875 11.80195825 -4.625 9.125 C-4.62886719 8.37476563 -4.63273438 7.62453125 -4.63671875 6.8515625 C-4.62464944 0.16516605 -4.62464944 0.16516605 0 0 Z " fill="#28B3B5" transform="translate(201.5,140.875)"/>
<path d="M0 0 C1.8871875 0.00773438 1.8871875 0.00773438 3.8125 0.015625 C5.070625 0.01046875 6.32875 0.0053125 7.625 0 C10.8125 0.265625 10.8125 0.265625 12.8125 2.265625 C13.07128906 5.38256836 13.07128906 5.38256836 13.078125 9.35546875 C13.08003845 10.05579727 13.0819519 10.75612579 13.08392334 11.47767639 C13.08528493 12.95964924 13.0815903 14.44163402 13.07324219 15.92358398 C13.06255777 18.19086585 13.07312953 20.45735249 13.0859375 22.72460938 C13.08461559 24.16406425 13.08205253 25.60351863 13.078125 27.04296875 C13.07586914 28.35515381 13.07361328 29.66733887 13.07128906 31.01928711 C12.8125 34.265625 12.8125 34.265625 10.8125 37.265625 C7.75 37.515625 7.75 37.515625 4.8125 37.265625 C3.8125 36.265625 3.8125 36.265625 3.69897461 33.94897461 C3.70421143 32.94874268 3.70944824 31.94851074 3.71484375 30.91796875 C3.71806641 29.83837891 3.72128906 28.75878906 3.72460938 27.64648438 C3.73298828 26.51017578 3.74136719 25.37386719 3.75 24.203125 C3.75451172 23.06294922 3.75902344 21.92277344 3.76367188 20.74804688 C3.77550253 17.92052149 3.7919859 15.0930986 3.8125 12.265625 C2.513125 12.28625 1.21375 12.306875 -0.125 12.328125 C-1.47915633 12.34961954 -2.83506083 12.33710699 -4.1875 12.265625 C-5.77644072 10.67668428 -5.35748411 9.01761076 -5.375 6.828125 C-5.38917969 6.02503906 -5.40335938 5.22195312 -5.41796875 4.39453125 C-5.01311986 0.65482542 -3.56670823 0.29722569 0 0 Z " fill="#1FB5B7" transform="translate(217.1875,139.734375)"/>
<path d="M0 0 C8.25 0 16.5 0 25 0 C25 5.61 25 11.22 25 17 C16.75 17 8.5 17 0 17 C0 11.39 0 5.78 0 0 Z " fill="#F6FCFC" transform="translate(156,160)"/>
<path d="M0 0 C5.28 0 10.56 0 16 0 C16 4.29 16 8.58 16 13 C10.72 13 5.44 13 0 13 C0 8.71 0 4.42 0 0 Z " fill="#EEFAF9" transform="translate(205,110)"/>
<path d="M0 0 C1.36560059 0.00303635 1.36560059 0.00303635 2.75878906 0.00613403 C3.68723633 0.00517731 4.61568359 0.00422058 5.57226562 0.00323486 C7.53938871 0.00255298 9.50651403 0.00440781 11.47363281 0.00857544 C14.49581932 0.01392358 17.51785721 0.00863071 20.54003906 0.00222778 C22.44628939 0.00288856 24.35253963 0.00416972 26.25878906 0.00613403 C27.16918945 0.0041098 28.07958984 0.00208557 29.01757812 0 C35.39383938 0.02399685 35.39383938 0.02399685 36.50878906 1.13894653 C36.60232069 2.82696638 36.62623697 4.51889861 36.62231445 6.20950317 C36.62223892 7.29054825 36.62216339 8.37159332 36.62208557 9.48539734 C36.61692429 10.66142014 36.611763 11.83744293 36.60644531 13.04910278 C36.60503036 14.24627426 36.60361542 15.44344574 36.60215759 16.67689514 C36.59653885 20.51843719 36.58398317 24.35992196 36.57128906 28.20144653 C36.56627648 30.7984509 36.56171315 33.39545618 36.55761719 35.99246216 C36.54656334 42.37464332 36.52980698 48.75679084 36.50878906 55.13894653 C36.17878906 55.13894653 35.84878906 55.13894653 35.50878906 55.13894653 C35.17878906 37.64894653 34.84878906 20.15894653 34.50878906 2.13894653 C29.02253906 2.11832153 23.53628906 2.09769653 17.88378906 2.07644653 C16.16337402 2.06734253 14.44295898 2.05823853 12.67041016 2.04885864 C11.29101642 2.04593519 9.91162181 2.04338765 8.53222656 2.04129028 C7.82880127 2.03617432 7.12537598 2.03105835 6.40063477 2.02578735 C2.32887301 2.02507376 -1.49652125 2.34929857 -5.49121094 3.13894653 C-5.51647786 10.52622755 -5.53404254 17.91349751 -5.54614258 25.30081177 C-5.55118457 27.81611548 -5.55801796 30.33141625 -5.56665039 32.84671021 C-5.57872188 36.45324428 -5.58444043 40.05973976 -5.58886719 43.66629028 C-5.59402847 44.79856552 -5.59918976 45.93084076 -5.60450745 47.09742737 C-5.60458298 48.13843094 -5.60465851 49.17943451 -5.60473633 50.25198364 C-5.60695694 51.17353745 -5.60917755 52.09509125 -5.61146545 53.04457092 C-5.72493074 55.12703015 -5.72493074 55.12703015 -4.49121094 56.13894653 C-1.60868449 56.29918216 1.25257433 56.39848682 4.13769531 56.45535278 C5.00192612 56.47613388 5.86615692 56.49691498 6.75657654 56.51832581 C9.52806351 56.58391767 12.29964828 56.64275071 15.07128906 56.70144653 C16.94564829 56.74462261 18.81999749 56.78823659 20.69433594 56.83230591 C25.29905243 56.93960881 29.90386764 57.04084868 34.50878906 57.13894653 C34.50878906 57.46894653 34.50878906 57.79894653 34.50878906 58.13894653 C28.68807284 58.16359291 22.86738672 58.18178083 17.04663086 58.19387817 C15.06485465 58.19891921 13.08308217 58.20575191 11.10131836 58.21438599 C8.25926798 58.22646168 5.41726659 58.23217698 2.57519531 58.23660278 C1.23769981 58.24434471 1.23769981 58.24434471 -0.1268158 58.25224304 C-2.24861695 58.2524383 -4.37031874 58.20104683 -6.49121094 58.13894653 C-8.19686711 56.43329036 -7.61873149 54.23161158 -7.62060547 51.90066528 C-7.62375763 50.7828064 -7.62690979 49.66494751 -7.63015747 48.51321411 C-7.62813324 47.29658081 -7.62610901 46.07994751 -7.62402344 44.82644653 C-7.62498016 43.58725464 -7.62593689 42.34806274 -7.62692261 41.07131958 C-7.62760468 38.44506373 -7.62624631 35.8189002 -7.62158203 33.19265747 C-7.61588474 29.8196594 -7.61916396 26.44674088 -7.6251545 23.07374573 C-7.62962864 19.86630977 -7.62649976 16.65888353 -7.62402344 13.45144653 C-7.62604767 12.23481323 -7.6280719 11.01817993 -7.63015747 9.76467896 C-7.62700531 8.64682007 -7.62385315 7.52896118 -7.62060547 6.37722778 C-7.61980988 5.38763062 -7.61901428 4.39803345 -7.61819458 3.37844849 C-7.3502634 -1.34682468 -3.95611109 0.01488869 0 0 Z " fill="#29ABAA" transform="translate(246.4912109375,109.86105346679688)"/>
<path d="M0 0 C1.87171875 -0.00386719 1.87171875 -0.00386719 3.78125 -0.0078125 C5.74578125 0.00378906 5.74578125 0.00378906 7.75 0.015625 C9.0596875 0.00789063 10.369375 0.00015625 11.71875 -0.0078125 C12.9665625 -0.00523438 14.214375 -0.00265625 15.5 0 C16.64984375 0.00225586 17.7996875 0.00451172 18.984375 0.00683594 C21.75 0.265625 21.75 0.265625 23.75 2.265625 C23.97705078 4.97119141 23.97705078 4.97119141 23.9453125 8.3671875 C23.93886719 9.57890625 23.93242187 10.790625 23.92578125 12.0390625 C23.90902344 13.31007813 23.89226562 14.58109375 23.875 15.890625 C23.86597656 17.169375 23.85695312 18.448125 23.84765625 19.765625 C23.82402303 22.93247667 23.79107629 26.09895924 23.75 29.265625 C23.42 29.265625 23.09 29.265625 22.75 29.265625 C22.255 16.395625 22.255 16.395625 21.75 3.265625 C20.43 3.265625 19.11 3.265625 17.75 3.265625 C17.75 3.925625 17.75 4.585625 17.75 5.265625 C15.44 5.265625 13.13 5.265625 10.75 5.265625 C10.75 6.255625 10.75 7.245625 10.75 8.265625 C12.4 8.265625 14.05 8.265625 15.75 8.265625 C15.75 8.595625 15.75 8.925625 15.75 9.265625 C10.47 9.265625 5.19 9.265625 -0.25 9.265625 C0.08 8.605625 0.41 7.945625 0.75 7.265625 C2.4 7.265625 4.05 7.265625 5.75 7.265625 C5.75 5.945625 5.75 4.625625 5.75 3.265625 C1.79 2.935625 -2.17 2.605625 -6.25 2.265625 C-6.30372251 6.55745678 -6.3435403 10.84862286 -6.375 15.140625 C-6.39175781 16.36394531 -6.40851563 17.58726563 -6.42578125 18.84765625 C-6.43222656 20.01425781 -6.43867188 21.18085937 -6.4453125 22.3828125 C-6.45578613 23.46159668 -6.46625977 24.54038086 -6.47705078 25.65185547 C-6.51839977 28.42606522 -6.51839977 28.42606522 -4.25 30.265625 C-5.57 29.935625 -6.89 29.605625 -8.25 29.265625 C-8.3078304 24.80734574 -8.34353855 20.3491622 -8.375 15.890625 C-8.39175781 14.61960937 -8.40851563 13.34859375 -8.42578125 12.0390625 C-8.43222656 10.82734375 -8.43867188 9.615625 -8.4453125 8.3671875 C-8.46102295 6.68616943 -8.46102295 6.68616943 -8.47705078 4.97119141 C-8.01397889 -0.54683306 -4.69452111 0.0092101 0 0 Z " fill="#22AEAC" transform="translate(205.25,100.734375)"/>
<path d="M0 0 C4.29 0 8.58 0 13 0 C12.67 1.65 12.34 3.3 12 5 C10.35 5.33 8.7 5.66 7 6 C7.01160156 7.04800781 7.02320313 8.09601563 7.03515625 9.17578125 C7.04453655 10.55468572 7.0536365 11.93359211 7.0625 13.3125 C7.07087891 14.00279297 7.07925781 14.69308594 7.08789062 15.40429688 C7.10307906 18.5483025 7.00193327 20.99420019 6 24 C4.68 24 3.36 24 2 24 C2 23.01 2 22.02 2 21 C1.34 21 0.68 21 0 21 C-0.33 22.32 -0.66 23.64 -1 25 C-0.67 16.75 -0.34 8.5 0 0 Z " fill="#0DB4B9" transform="translate(199,103)"/>
<path d="M0 0 C9.27734375 -0.09765625 9.27734375 -0.09765625 12 0 C13 1 13 1 13.1328125 3.46875 C13.13023437 4.4690625 13.12765625 5.469375 13.125 6.5 C13.12757813 7.5003125 13.13015625 8.500625 13.1328125 9.53125 C13 12 13 12 12 13 C7.99779347 13.14355117 4.00558317 13.04216403 0 13 C0 8.71 0 4.42 0 0 Z " fill="#20B2B3" transform="translate(162,115)"/>
<path d="M0 0 C5.96313166 -0.02464574 11.92623395 -0.042834 17.8894043 -0.05493164 C19.91968298 -0.05997278 21.94995802 -0.06680557 23.98022461 -0.07543945 C26.89177347 -0.08751467 29.8032745 -0.09323034 32.71484375 -0.09765625 C33.6283812 -0.10281754 34.54191864 -0.10797882 35.48313904 -0.11329651 C37.65575427 -0.11349168 39.82827296 -0.06211805 42 0 C43.57073532 1.57073532 43.16369307 3.15362218 43.20532227 5.33618164 C43.2352401 6.71750023 43.2352401 6.71750023 43.26576233 8.12672424 C43.28247482 9.12775681 43.29918732 10.12878937 43.31640625 11.16015625 C43.33718735 12.17975937 43.35796844 13.19936249 43.37937927 14.24986267 C43.44498852 17.52067048 43.50381234 20.79156137 43.5625 24.0625 C43.60567442 26.27409728 43.64928834 28.48568603 43.69335938 30.69726562 C43.8006814 36.13142151 43.90242623 41.56566082 44 47 C44.99 47.495 44.99 47.495 46 48 C45.01 52.62 44.02 57.24 43 62 C41.02341046 58.04682092 40.75388316 56.63793873 40.77294922 52.40527344 C40.77310028 51.28441345 40.77325134 50.16355347 40.77340698 49.00872803 C40.78372955 47.80444153 40.79405212 46.60015503 40.8046875 45.359375 C40.8075174 44.12205627 40.81034729 42.88473755 40.81326294 41.60992432 C40.822558 38.32848459 40.84051295 35.04724246 40.8626709 31.76586914 C40.88316952 28.41424378 40.89210276 25.06260993 40.90234375 21.7109375 C40.92269837 15.14046765 40.96184878 8.57048717 41 2 C20.705 1.505 20.705 1.505 0 1 C0 0.67 0 0.34 0 0 Z " fill="#CCF6F6" transform="translate(241,109)"/>
<path d="M0 0 C1.2065625 0.0309375 1.2065625 0.0309375 2.4375 0.0625 C3.54691367 5.39117983 3.55298069 10.52531855 3.5 15.9375 C3.49548828 16.81664062 3.49097656 17.69578125 3.48632812 18.6015625 C3.47462337 20.75523803 3.45669069 22.90887817 3.4375 25.0625 C3.1075 25.0625 2.7775 25.0625 2.4375 25.0625 C2.4375 22.4225 2.4375 19.7825 2.4375 17.0625 C0.4575 17.0625 -1.5225 17.0625 -3.5625 17.0625 C-3.58934679 14.41659986 -3.60926357 11.77096904 -3.625 9.125 C-3.63337891 8.37025391 -3.64175781 7.61550781 -3.65039062 6.83789062 C-3.65902441 4.91255687 -3.61474333 2.98714419 -3.5625 1.0625 C-2.5625 0.0625 -2.5625 0.0625 0 0 Z " fill="#0DB5B9" transform="translate(201.5625,141.9375)"/>
<path d="M0 0 C0.33 0 0.66 0 1 0 C1 6.27 1 12.54 1 19 C-3.29 19 -7.58 19 -12 19 C-12 16.69 -12 14.38 -12 12 C-10.02 12 -8.04 12 -6 12 C-6 12.66 -6 13.32 -6 14 C-7.32 14.33 -8.64 14.66 -10 15 C-9.34 15.33 -8.68 15.66 -8 16 C-8 16.66 -8 17.32 -8 18 C-7.54625 17.505 -7.0925 17.01 -6.625 16.5 C-5 15 -5 15 -3 15 C-3 12.36 -3 9.72 -3 7 C-2.34 6.67 -1.68 6.34 -1 6 C-0.34227572 2.97065509 -0.34227572 2.97065509 0 0 Z " fill="#0CB6BB" transform="translate(210,156)"/>
<path d="M0 0 C0.99 0 1.98 0 3 0 C3 0.66 3 1.32 3 2 C4.65 2 6.3 2 8 2 C8 3.98 8 5.96 8 8 C8.66 8.33 9.32 8.66 10 9 C6.7 9 3.4 9 0 9 C0 6.03 0 3.06 0 0 Z " fill="#10B5BB" transform="translate(163,118)"/>
<path d="M0 0 C3.63 0.33 7.26 0.66 11 1 C11 1.66 11 2.32 11 3 C8.69 3 6.38 3 4 3 C4 3.99 4 4.98 4 6 C5.65 6 7.3 6 9 6 C9 6.33 9 6.66 9 7 C3.72 7 -1.56 7 -7 7 C-6.67 6.34 -6.34 5.68 -6 5 C-4.35 5 -2.7 5 -1 5 C-0.67 3.35 -0.34 1.7 0 0 Z " fill="#16B1B0" transform="translate(212,103)"/>
<path d="M0 0 C0 0.66 0 1.32 0 2 C-1.98 2.99 -1.98 2.99 -4 4 C-4 6.64 -4 9.28 -4 12 C-5.32 11.01 -6.64 10.02 -8 9 C-7.67 12.96 -7.34 16.92 -7 21 C-10.22258222 16.70322371 -10.63809477 15.37778445 -10.49609375 10.32421875 C-9.63210308 6.27638842 -7.0583667 3.66220521 -4 1 C-2 0 -2 0 0 0 Z " fill="#1AAFB2" transform="translate(264,243)"/>
<path d="M0 0 C0.66 0.99 1.32 1.98 2 3 C-3.59373846 8.8961027 -3.59373846 8.8961027 -8.26171875 9.09765625 C-9.06222656 9.08605469 -9.86273438 9.07445312 -10.6875 9.0625 C-11.89986328 9.04896484 -11.89986328 9.04896484 -13.13671875 9.03515625 C-14.05904297 9.01775391 -14.05904297 9.01775391 -15 9 C-15 8.67 -15 8.34 -15 8 C-14.37351562 7.97421875 -13.74703125 7.9484375 -13.1015625 7.921875 C-12.28429687 7.86515625 -11.46703125 7.8084375 -10.625 7.75 C-9.81289063 7.70359375 -9.00078125 7.6571875 -8.1640625 7.609375 C-5.83004928 7.21983612 -5.83004928 7.21983612 -4.84375 5.0625 C-4.5653125 4.381875 -4.286875 3.70125 -4 3 C-1.875 1.25 -1.875 1.25 0 0 Z " fill="#1EAFB0" transform="translate(278,261)"/>
<path d="M0 0 C0.33 0 0.66 0 1 0 C1.04898437 0.63808594 1.09796875 1.27617187 1.1484375 1.93359375 C1.22320312 2.75988281 1.29796875 3.58617187 1.375 4.4375 C1.44460938 5.26121094 1.51421875 6.08492187 1.5859375 6.93359375 C1.72257812 7.61550781 1.85921875 8.29742187 2 9 C2.66 9.33 3.32 9.66 4 10 C3.01 14.62 2.02 19.24 1 24 C-0.92753182 20.14493635 -1.2330787 19.2360277 -0.9765625 15.234375 C-0.925 14.34492188 -0.8734375 13.45546875 -0.8203125 12.5390625 C-0.75585938 11.61867187 -0.69140625 10.69828125 -0.625 9.75 C-0.56828125 8.81414062 -0.5115625 7.87828125 -0.453125 6.9140625 C-0.31197212 4.60856552 -0.1605965 2.30421072 0 0 Z " fill="#DEF8F8" transform="translate(283,147)"/>
<path d="M0 0 C0.598125 0.226875 1.19625 0.45375 1.8125 0.6875 C-0.1675 1.6775 -0.1675 1.6775 -2.1875 2.6875 C-1.8575 3.6775 -1.5275 4.6675 -1.1875 5.6875 C-0.83206573 8.01756911 -0.4961247 10.35077016 -0.1875 12.6875 C-4.0625 10.9375 -4.0625 10.9375 -5.1875 8.6875 C-5.63862782 3.38674812 -5.63862782 3.38674812 -3.9375 0.75 C-2.1875 -0.3125 -2.1875 -0.3125 0 0 Z " fill="#25B0AF" transform="translate(67.1875,47.3125)"/>
<path d="M0 0 C3.70668305 3.46754221 4.91463111 5.37799102 5.1875 10.5625 C5 14 5 14 3 16 C3 12.7 3 9.4 3 6 C2.34 6 1.68 6 1 6 C0.67 4.02 0.34 2.04 0 0 Z " fill="#42B7B3" transform="translate(311,84)"/>
<path d="M0 0 C0.33 0 0.66 0 1 0 C1 4.95 1 9.9 1 15 C0.67 15 0.34 15 0 15 C0 12.36 0 9.72 0 7 C-1.98 7 -3.96 7 -6 7 C-5.38125 6.95875 -4.7625 6.9175 -4.125 6.875 C-3.42375 6.58625 -2.7225 6.2975 -2 6 C-0.6954344 3.00384054 -0.6954344 3.00384054 0 0 Z " fill="#14AEB0" transform="translate(204,152)"/>
<path d="M0 0 C0.33 0 0.66 0 1 0 C1.20496094 0.62648437 1.40992188 1.25296875 1.62109375 1.8984375 C1.89050781 2.71570313 2.15992188 3.53296875 2.4375 4.375 C2.70433594 5.18710937 2.97117188 5.99921875 3.24609375 6.8359375 C3.95179729 9.01031799 3.95179729 9.01031799 5 11 C2.03 10.505 2.03 10.505 -1 10 C-0.67 6.7 -0.34 3.4 0 0 Z " fill="#DFF6F5" transform="translate(253,255)"/>
<path d="M0 0 C0.99 0.495 0.99 0.495 2 1 C4.0374763 1.22858114 6.08040303 1.41024278 8.125 1.5625 C9.76855469 1.68818359 9.76855469 1.68818359 11.4453125 1.81640625 C12.28835937 1.87699219 13.13140625 1.93757812 14 2 C14 2.33 14 2.66 14 3 C10.04 3 6.08 3 2 3 C2 3.99 2 4.98 2 6 C1.34 6 0.68 6 0 6 C0 4.02 0 2.04 0 0 Z " fill="#E4F9FA" transform="translate(197,175)"/>
<path d="M0 0 C0.66 0.33 1.32 0.66 2 1 C2.48951049 7.36363636 2.48951049 7.36363636 0.125 10.4375 C-2 12 -2 12 -4 12 C-3.67 11.01 -3.34 10.02 -3 9 C-2.01 9 -1.02 9 0 9 C0 6.03 0 3.06 0 0 Z " fill="#2DAEAB" transform="translate(290,222)"/>
<path d="M0 0 C0.33 0 0.66 0 1 0 C1.36368892 1.60203467 1.71561952 3.20674203 2.0625 4.8125 C2.25972656 5.70582031 2.45695312 6.59914063 2.66015625 7.51953125 C3 10 3 10 2 13 C0.21590198 9.93753253 -0.22880021 7.77920727 -0.125 4.25 C-0.10695312 3.45078125 -0.08890625 2.6515625 -0.0703125 1.828125 C-0.04710937 1.22484375 -0.02390625 0.6215625 0 0 Z " fill="#32B2B3" transform="translate(254,251)"/>
<path d="M0 0 C2.50298434 2.93828597 3.46930939 5.17902761 4 9 C3.34 9 2.68 9 2 9 C2 8.01 2 7.02 2 6 C1.01 5.67 0.02 5.34 -1 5 C-0.67 3.35 -0.34 1.7 0 0 Z " fill="#25B3B1" transform="translate(139,160)"/>
<path d="M0 0 C2.7839183 1.39195915 2.97898997 3.15575779 4 6 C3.01 6.495 3.01 6.495 2 7 C0.35 5.02 -1.3 3.04 -3 1 C-2.01 0.67 -1.02 0.34 0 0 Z " fill="#26B4B2" transform="translate(91,59)"/>
</svg>
